<svg xmlns="http://www.w3.org/2000/svg" width="100" height="100" viewBox="0 0 100 100">
  <g id="Grupo_283" data-name="Grupo 283" transform="translate(-4844 -7018)">
    <circle id="Elipse_151" data-name="Elipse 151" cx="50" cy="50" r="50" transform="translate(4844 7018)" fill="none"/>
    <g id="Grupo_274" data-name="Grupo 274" transform="translate(2808.208 -1160.593) rotate(21)">
      <g id="Grupo_272" data-name="Grupo 272" transform="translate(4883 6887)">
        <g id="Grupo_270" data-name="Grupo 270">
          <circle id="Elipse_147" data-name="Elipse 147" cx="3.5" cy="3.5" r="3.5" fill="#2c2c2c"/>
          <circle id="Elipse_148" data-name="Elipse 148" cx="3.5" cy="3.5" r="3.5" transform="translate(0 4)" fill="#2c2c2c"/>
        </g>
        <g id="Grupo_271" data-name="Grupo 271" transform="translate(18.103)">
          <circle id="Elipse_149" data-name="Elipse 149" cx="3.5" cy="3.5" r="3.5" transform="translate(-0.103)" fill="#2c2c2c"/>
          <circle id="Elipse_150" data-name="Elipse 150" cx="3.5" cy="3.5" r="3.5" transform="translate(-0.103 4)" fill="#2c2c2c"/>
        </g>
        <rect id="Rectángulo_218" data-name="Rectángulo 218" width="19" height="5" transform="translate(4 3)" fill="#2c2c2c"/>
      </g>
    </g>
    <g id="Grupo_279" data-name="Grupo 279" transform="matrix(0.891, -0.454, 0.454, 0.891, -2611.472, 3109.095)">
      <g id="Grupo_272-2" data-name="Grupo 272" transform="translate(4883 6887)">
        <g id="Grupo_270-2" data-name="Grupo 270">
          <circle id="Elipse_147-2" data-name="Elipse 147" cx="2.473" cy="2.473" r="2.473" fill="#2c2c2c"/>
          <circle id="Elipse_148-2" data-name="Elipse 148" cx="2.473" cy="2.473" r="2.473" transform="translate(0 2.826)" fill="#2c2c2c"/>
        </g>
        <g id="Grupo_271-2" data-name="Grupo 271" transform="translate(12.718)">
          <circle id="Elipse_149-2" data-name="Elipse 149" cx="2.473" cy="2.473" r="2.473" transform="translate(0)" fill="#2c2c2c"/>
          <circle id="Elipse_150-2" data-name="Elipse 150" cx="2.473" cy="2.473" r="2.473" transform="translate(0 2.826)" fill="#2c2c2c"/>
        </g>
        <rect id="Rectángulo_218-2" data-name="Rectángulo 218" width="13.425" height="3.533" transform="translate(2.826 2.12)" fill="#2c2c2c"/>
      </g>
    </g>
    <g id="Grupo_282" data-name="Grupo 282" transform="matrix(0.53, 0.848, -0.848, 0.53, 8182.106, -756.048)">
      <g id="Grupo_272-3" data-name="Grupo 272" transform="translate(4883 6887)">
        <g id="Grupo_270-3" data-name="Grupo 270">
          <circle id="Elipse_147-3" data-name="Elipse 147" cx="2.473" cy="2.473" r="2.473" fill="#2c2c2c"/>
          <circle id="Elipse_148-3" data-name="Elipse 148" cx="2.473" cy="2.473" r="2.473" transform="translate(0 2.826)" fill="#2c2c2c"/>
        </g>
        <g id="Grupo_271-3" data-name="Grupo 271" transform="translate(12.718)">
          <circle id="Elipse_149-3" data-name="Elipse 149" cx="2.473" cy="2.473" r="2.473" transform="translate(0)" fill="#2c2c2c"/>
          <circle id="Elipse_150-3" data-name="Elipse 150" cx="2.473" cy="2.473" r="2.473" transform="translate(0 2.826)" fill="#2c2c2c"/>
        </g>
        <rect id="Rectángulo_218-3" data-name="Rectángulo 218" width="13.425" height="3.533" transform="translate(2.826 2.12)" fill="#2c2c2c"/>
      </g>
    </g>
    <g id="Grupo_280" data-name="Grupo 280" transform="matrix(0.819, -0.574, 0.574, 0.819, -3041.025, 4265.23)">
      <g id="Grupo_272-4" data-name="Grupo 272" transform="translate(4883 6887)">
        <g id="Grupo_270-4" data-name="Grupo 270">
          <circle id="Elipse_147-4" data-name="Elipse 147" cx="2.473" cy="2.473" r="2.473" fill="#2c2c2c"/>
          <circle id="Elipse_148-4" data-name="Elipse 148" cx="2.473" cy="2.473" r="2.473" transform="translate(0 2.826)" fill="#2c2c2c"/>
        </g>
        <g id="Grupo_271-4" data-name="Grupo 271" transform="translate(12.718)">
          <circle id="Elipse_149-4" data-name="Elipse 149" cx="2.473" cy="2.473" r="2.473" transform="translate(0)" fill="#2c2c2c"/>
          <circle id="Elipse_150-4" data-name="Elipse 150" cx="2.473" cy="2.473" r="2.473" transform="translate(0 2.826)" fill="#2c2c2c"/>
        </g>
        <rect id="Rectángulo_218-4" data-name="Rectángulo 218" width="13.425" height="3.533" transform="translate(2.826 2.12)" fill="#2c2c2c"/>
      </g>
    </g>
    <g id="Grupo_281" data-name="Grupo 281" transform="translate(122.754 136.863) rotate(1)">
      <g id="Grupo_272-5" data-name="Grupo 272" transform="translate(4883 6887)">
        <g id="Grupo_270-5" data-name="Grupo 270">
          <circle id="Elipse_147-5" data-name="Elipse 147" cx="2.473" cy="2.473" r="2.473" fill="#2c2c2c"/>
          <circle id="Elipse_148-5" data-name="Elipse 148" cx="2.473" cy="2.473" r="2.473" transform="translate(0 2.826)" fill="#2c2c2c"/>
        </g>
        <g id="Grupo_271-5" data-name="Grupo 271" transform="translate(12.718)">
          <circle id="Elipse_149-5" data-name="Elipse 149" cx="2.473" cy="2.473" r="2.473" transform="translate(0)" fill="#2c2c2c"/>
          <circle id="Elipse_150-5" data-name="Elipse 150" cx="2.473" cy="2.473" r="2.473" transform="translate(0 2.826)" fill="#2c2c2c"/>
        </g>
        <rect id="Rectángulo_218-5" data-name="Rectángulo 218" width="13.425" height="3.533" transform="translate(2.826 2.12)" fill="#2c2c2c"/>
      </g>
    </g>
    <g id="Grupo_277" data-name="Grupo 277" transform="matrix(0.777, 0.629, -0.629, 0.777, 5399.573, -1337.816)">
      <g id="Grupo_272-6" data-name="Grupo 272" transform="translate(4883 6887)">
        <g id="Grupo_270-6" data-name="Grupo 270">
          <circle id="Elipse_147-6" data-name="Elipse 147" cx="3.5" cy="3.5" r="3.5" fill="#2c2c2c"/>
          <circle id="Elipse_148-6" data-name="Elipse 148" cx="3.5" cy="3.5" r="3.5" transform="translate(0 4)" fill="#2c2c2c"/>
        </g>
        <g id="Grupo_271-6" data-name="Grupo 271" transform="translate(18.103)">
          <circle id="Elipse_149-6" data-name="Elipse 149" cx="3.5" cy="3.5" r="3.5" transform="translate(-0.103)" fill="#2c2c2c"/>
          <circle id="Elipse_150-6" data-name="Elipse 150" cx="3.5" cy="3.5" r="3.5" transform="translate(-0.103 4)" fill="#2c2c2c"/>
        </g>
        <rect id="Rectángulo_218-6" data-name="Rectángulo 218" width="19" height="5" transform="translate(4 3)" fill="#2c2c2c"/>
      </g>
    </g>
    <g id="Grupo_278" data-name="Grupo 278" transform="translate(10891.991 1167.122) rotate(81)">
      <g id="Grupo_272-7" data-name="Grupo 272" transform="translate(4883 6887)">
        <g id="Grupo_270-7" data-name="Grupo 270">
          <circle id="Elipse_147-7" data-name="Elipse 147" cx="2.381" cy="2.381" r="2.381" fill="#2c2c2c"/>
          <circle id="Elipse_148-7" data-name="Elipse 148" cx="2.381" cy="2.381" r="2.381" transform="translate(0 2.721)" fill="#2c2c2c"/>
        </g>
        <g id="Grupo_271-7" data-name="Grupo 271" transform="translate(12.243)">
          <circle id="Elipse_149-7" data-name="Elipse 149" cx="2.381" cy="2.381" r="2.381" transform="translate(0)" fill="#2c2c2c"/>
          <circle id="Elipse_150-7" data-name="Elipse 150" cx="2.381" cy="2.381" r="2.381" transform="translate(0 2.721)" fill="#2c2c2c"/>
        </g>
        <rect id="Rectángulo_218-7" data-name="Rectángulo 218" width="12.924" height="3.401" transform="translate(2.721 2.041)" fill="#2c2c2c"/>
      </g>
    </g>
    <g id="Grupo_275" data-name="Grupo 275" transform="matrix(0.485, -0.875, 0.875, 0.485, -3545.202, 7988.65)">
      <g id="Grupo_272-8" data-name="Grupo 272" transform="translate(4883 6887)">
        <g id="Grupo_270-8" data-name="Grupo 270">
          <circle id="Elipse_147-8" data-name="Elipse 147" cx="3.5" cy="3.5" r="3.5" fill="#2c2c2c"/>
          <circle id="Elipse_148-8" data-name="Elipse 148" cx="3.5" cy="3.5" r="3.5" transform="translate(0 4)" fill="#2c2c2c"/>
        </g>
        <g id="Grupo_271-8" data-name="Grupo 271" transform="translate(18.103)">
          <circle id="Elipse_149-8" data-name="Elipse 149" cx="3.5" cy="3.5" r="3.5" transform="translate(-0.103)" fill="#2c2c2c"/>
          <circle id="Elipse_150-8" data-name="Elipse 150" cx="3.5" cy="3.5" r="3.5" transform="translate(-0.103 4)" fill="#2c2c2c"/>
        </g>
        <rect id="Rectángulo_218-8" data-name="Rectángulo 218" width="19" height="5" transform="translate(4 3)" fill="#2c2c2c"/>
      </g>
    </g>
    <g id="Grupo_276" data-name="Grupo 276" transform="matrix(0.139, -0.99, 0.99, 0.139, -2571.245, 10961.106)">
      <g id="Grupo_272-9" data-name="Grupo 272" transform="translate(4883 6887)">
        <g id="Grupo_270-9" data-name="Grupo 270">
          <circle id="Elipse_147-9" data-name="Elipse 147" cx="3.5" cy="3.5" r="3.5" fill="#2c2c2c"/>
          <circle id="Elipse_148-9" data-name="Elipse 148" cx="3.5" cy="3.5" r="3.5" transform="translate(0 4)" fill="#2c2c2c"/>
        </g>
        <g id="Grupo_271-9" data-name="Grupo 271" transform="translate(18.103)">
          <circle id="Elipse_149-9" data-name="Elipse 149" cx="3.5" cy="3.5" r="3.5" transform="translate(-0.103)" fill="#2c2c2c"/>
          <circle id="Elipse_150-9" data-name="Elipse 150" cx="3.5" cy="3.5" r="3.5" transform="translate(-0.103 4)" fill="#2c2c2c"/>
        </g>
        <rect id="Rectángulo_218-9" data-name="Rectángulo 218" width="19" height="5" transform="translate(4 3)" fill="#2c2c2c"/>
      </g>
    </g>
  </g>
</svg>
