<svg xmlns="http://www.w3.org/2000/svg" width="150" height="67" viewBox="0 0 150 67">
  <g id="Grupo_273" data-name="Grupo 273" transform="translate(-4883 -6887)">
    <g id="Grupo_272" data-name="Grupo 272" transform="translate(4883 6887)">
      <g id="Grupo_270" data-name="Grupo 270">
        <circle id="Elipse_147" data-name="Elipse 147" cx="21.5" cy="21.5" r="21.5" fill="#2c2c2c"/>
        <ellipse id="Elipse_148" data-name="Elipse 148" cx="21.5" cy="20.5" rx="21.5" ry="20.5" transform="translate(0 26)" fill="#2c2c2c"/>
      </g>
      <g id="Grupo_271" data-name="Grupo 271" transform="translate(106.918)">
        <circle id="Elipse_149" data-name="Elipse 149" cx="21.5" cy="21.5" r="21.5" transform="translate(0.082)" fill="#2c2c2c"/>
        <ellipse id="Elipse_150" data-name="Elipse 150" cx="21.5" cy="20.5" rx="21.5" ry="20.5" transform="translate(0.082 26)" fill="#2c2c2c"/>
      </g>
      <rect id="Rectángulo_218" data-name="Rectángulo 218" width="112" height="28" transform="translate(21 20)" fill="#2c2c2c"/>
    </g>
    <path id="Trazado_378" data-name="Trazado 378" d="M-75.337-16.831v-7.16h-.286a1.394,1.394,0,0,1-.942-.254.855.855,0,0,1-.281-.665.855.855,0,0,1,.281-.665,1.394,1.394,0,0,1,.942-.254h4.589a3.762,3.762,0,0,1,2.643.915,2.852,2.852,0,0,1,1,2.174,2.758,2.758,0,0,1-.232,1.125,3.008,3.008,0,0,1-.705.973,3.77,3.77,0,0,1,1.3,1.21,2.892,2.892,0,0,1,.433,1.567,2.754,2.754,0,0,1-.312,1.295,2.141,2.141,0,0,1-.571.723,3.7,3.7,0,0,1-1.116.612A4.95,4.95,0,0,1-70.248-15h-5.375a1.394,1.394,0,0,1-.942-.254.855.855,0,0,1-.281-.665.838.838,0,0,1,.286-.656,1.4,1.4,0,0,1,.937-.254Zm1.83-4.5H-71.5a2.874,2.874,0,0,0,1.795-.545,1.1,1.1,0,0,0,.482-.911,1.058,1.058,0,0,0-.455-.844,2.326,2.326,0,0,0-1.446-.362h-2.384Zm0,4.5h3.16a2.777,2.777,0,0,0,1.571-.33.826.826,0,0,0,.348-.714,1.454,1.454,0,0,0-.687-1.089,3.153,3.153,0,0,0-1.973-.536h-2.419Zm10.99-2.3v2.3h.661a1.394,1.394,0,0,1,.942.254.855.855,0,0,1,.281.665.844.844,0,0,1-.281.656,1.394,1.394,0,0,1-.942.254h-2.777a1.394,1.394,0,0,1-.942-.254.855.855,0,0,1-.281-.665.838.838,0,0,1,.286-.656,1.4,1.4,0,0,1,.937-.254h.286v-7.16h-.286a1.394,1.394,0,0,1-.942-.254.855.855,0,0,1-.281-.665.855.855,0,0,1,.281-.665,1.394,1.394,0,0,1,.942-.254l4.143.009a4.337,4.337,0,0,1,3,.96,3.025,3.025,0,0,1,1.067,2.335,2.621,2.621,0,0,1-.5,1.558,4.338,4.338,0,0,1-1.509,1.245,11.623,11.623,0,0,1,1.241,1.3q.411.509,1.107,1.589a1.939,1.939,0,0,1,.92.143.89.89,0,0,1,.4.777.851.851,0,0,1-.277.656,1.375,1.375,0,0,1-.937.254h-1.045q-2.223-3.437-3.687-4.134Zm0-1.83h1.428a3.922,3.922,0,0,0,1.42-.241,2.73,2.73,0,0,0,1.129-.679,1.125,1.125,0,0,0,.29-.705,1.241,1.241,0,0,0-.554-.96,2.544,2.544,0,0,0-1.616-.442h-2.1Zm10.981,1.446v2.687h4.669v-.991a1.394,1.394,0,0,1,.254-.942.855.855,0,0,1,.665-.281.844.844,0,0,1,.656.281,1.394,1.394,0,0,1,.254.942V-15h-8.615a1.394,1.394,0,0,1-.942-.254.855.855,0,0,1-.281-.665.838.838,0,0,1,.286-.656,1.4,1.4,0,0,1,.937-.254h.286v-7.16h-.286a1.394,1.394,0,0,1-.942-.254.855.855,0,0,1-.281-.665.855.855,0,0,1,.281-.665,1.394,1.394,0,0,1,.942-.254l8.214.009v2.785a1.4,1.4,0,0,1-.25.933.841.841,0,0,1-.661.281.861.861,0,0,1-.665-.277,1.375,1.375,0,0,1-.254-.937v-.955h-4.268v2.643h1.607a1.984,1.984,0,0,1,.134-.92.878.878,0,0,1,.786-.437.844.844,0,0,1,.656.281,1.394,1.394,0,0,1,.254.942v2.107a1.541,1.541,0,0,1-.143.8.885.885,0,0,1-.768.42.878.878,0,0,1-.786-.437,2.013,2.013,0,0,1-.134-.929Zm10.972,0v2.687h4.669v-.991a1.394,1.394,0,0,1,.254-.942.855.855,0,0,1,.665-.281.844.844,0,0,1,.656.281,1.394,1.394,0,0,1,.254.942V-15h-8.615a1.394,1.394,0,0,1-.942-.254.855.855,0,0,1-.281-.665.838.838,0,0,1,.286-.656,1.4,1.4,0,0,1,.937-.254h.286v-7.16h-.286a1.394,1.394,0,0,1-.942-.254.855.855,0,0,1-.281-.665.855.855,0,0,1,.281-.665,1.394,1.394,0,0,1,.942-.254l8.214.009v2.785a1.4,1.4,0,0,1-.25.933.841.841,0,0,1-.661.281.861.861,0,0,1-.665-.277,1.375,1.375,0,0,1-.254-.937v-.955h-4.268v2.643h1.607a1.984,1.984,0,0,1,.134-.92.878.878,0,0,1,.786-.437.844.844,0,0,1,.656.281,1.394,1.394,0,0,1,.254.942v2.107a1.541,1.541,0,0,1-.143.8.885.885,0,0,1-.768.42.878.878,0,0,1-.786-.437,2.013,2.013,0,0,1-.134-.929Zm8.758,2.687v-7.16a1.265,1.265,0,0,1-.857-.263.851.851,0,0,1-.277-.656.855.855,0,0,1,.281-.665,1.394,1.394,0,0,1,.942-.254l3.83.009a4.793,4.793,0,0,1,1.745.33,3.974,3.974,0,0,1,1.37.839,5.878,5.878,0,0,1,.817,1.053,5.891,5.891,0,0,1,.638,1.33,5.288,5.288,0,0,1,.214,1.616v.875a5.087,5.087,0,0,1-.393,2.058,4.146,4.146,0,0,1-1.031,1.464,5.279,5.279,0,0,1-1.2.835,5.464,5.464,0,0,1-2.312.42h-3.678a1.394,1.394,0,0,1-.942-.254.855.855,0,0,1-.281-.665.858.858,0,0,1,.281-.661A1.194,1.194,0,0,1-31.8-16.831Zm1.83,0h1.946a3.42,3.42,0,0,0,1.643-.312A2.837,2.837,0,0,0-25.3-18.188a3.26,3.26,0,0,0,.366-1.643V-20.7a3.315,3.315,0,0,0-.33-1.518,3.28,3.28,0,0,0-1.165-1.4,3.162,3.162,0,0,0-1.62-.379h-1.928Zm10.562,1.366a1.62,1.62,0,0,1-.388.366.747.747,0,0,1-.362.08.865.865,0,0,1-.674-.281,1.377,1.377,0,0,1-.254-.933v-1.232a1.394,1.394,0,0,1,.254-.942.865.865,0,0,1,.674-.281.855.855,0,0,1,.54.17,1.075,1.075,0,0,1,.335.567,1.521,1.521,0,0,0,.241.54,2.828,2.828,0,0,0,.92.562,3.605,3.605,0,0,0,1.446.286,3.33,3.33,0,0,0,2.009-.571,1.021,1.021,0,0,0,.5-.857,1,1,0,0,0-.241-.638,1.745,1.745,0,0,0-.786-.5,12.281,12.281,0,0,0-1.6-.366,8.639,8.639,0,0,1-2.268-.67,3.03,3.03,0,0,1-1.214-1.107,2.861,2.861,0,0,1-.446-1.545,3.007,3.007,0,0,1,1.1-2.3A4.113,4.113,0,0,1-16.77-26.1a5.2,5.2,0,0,1,1.308.156,3.657,3.657,0,0,1,1.094.478,1.039,1.039,0,0,1,.714-.348.844.844,0,0,1,.656.281,1.377,1.377,0,0,1,.254.933v1.375a1.394,1.394,0,0,1-.254.942.844.844,0,0,1-.656.281.9.9,0,0,1-.589-.205,1.03,1.03,0,0,1-.295-.607,1.682,1.682,0,0,0-.25-.652,1.959,1.959,0,0,0-.777-.571,2.9,2.9,0,0,0-1.2-.232,2.443,2.443,0,0,0-1.567.46,1.267,1.267,0,0,0-.576.96,1.084,1.084,0,0,0,.237.656,1.535,1.535,0,0,0,.692.5,13.309,13.309,0,0,0,1.71.4,10.875,10.875,0,0,1,2.161.607,2.988,2.988,0,0,1,1.254,1.036,2.827,2.827,0,0,1,.5,1.678,2.7,2.7,0,0,1-.955,2.169,4.834,4.834,0,0,1-3.232,1.071,5.964,5.964,0,0,1-1.478-.183A6.112,6.112,0,0,1-19.413-15.465Z" transform="translate(5002.008 6941.121)" fill="#fff"/>
    <path id="Trazado_379" data-name="Trazado 379" d="M-16.764-13.181v3.83h.659a.745.745,0,0,1,.5.136.457.457,0,0,1,.15.356.452.452,0,0,1-.15.351.745.745,0,0,1-.5.136H-18.4a.745.745,0,0,1-.5-.136.457.457,0,0,1-.15-.356.452.452,0,0,1,.15-.351.745.745,0,0,1,.5-.136h.654v-3.83H-18.8v.926a.745.745,0,0,1-.136.5.457.457,0,0,1-.356.15.452.452,0,0,1-.351-.15.745.745,0,0,1-.136-.5v-1.91l5.071,0v1.905a.745.745,0,0,1-.136.5.457.457,0,0,1-.356.15.452.452,0,0,1-.351-.15.745.745,0,0,1-.136-.5v-.926Zm4.384-1.385v2.087a2.59,2.59,0,0,1,.618-.27,2.317,2.317,0,0,1,.633-.088,2.248,2.248,0,0,1,.9.172,1.543,1.543,0,0,1,.657.542,1.584,1.584,0,0,1,.26.934v1.839a1.064,1.064,0,0,1,.487.072.472.472,0,0,1,.229.42.455.455,0,0,1-.148.351.735.735,0,0,1-.5.136h-1.117a.737.737,0,0,1-.5-.136.457.457,0,0,1-.15-.356.468.468,0,0,1,.229-.415,1,1,0,0,1,.487-.072v-1.772a.683.683,0,0,0-.172-.53.953.953,0,0,0-.664-.205,1.26,1.26,0,0,0-.575.127,3.092,3.092,0,0,0-.676.547v1.834a1.046,1.046,0,0,1,.487.072.47.47,0,0,1,.234.42.452.452,0,0,1-.15.351.745.745,0,0,1-.5.136h-1.113a.745.745,0,0,1-.5-.136.457.457,0,0,1-.15-.356.466.466,0,0,1,.234-.415.982.982,0,0,1,.487-.072v-4.236h-.167a.745.745,0,0,1-.5-.136.457.457,0,0,1-.15-.356.452.452,0,0,1,.15-.351.745.745,0,0,1,.5-.136Zm9.336,4.522H-7.061a1.257,1.257,0,0,0,.542.616,2.036,2.036,0,0,0,1.053.234,6.093,6.093,0,0,0,1.447-.234,2.5,2.5,0,0,1,.516-.1.44.44,0,0,1,.33.138.482.482,0,0,1,.134.349.428.428,0,0,1-.143.325,2.289,2.289,0,0,1-.931.337,6.735,6.735,0,0,1-1.423.16,2.628,2.628,0,0,1-1.879-.664,2.156,2.156,0,0,1-.7-1.633,2.1,2.1,0,0,1,.762-1.679A2.631,2.631,0,0,1-5.6-12.837a2.8,2.8,0,0,1,1.1.21,2.331,2.331,0,0,1,.743.454A2.862,2.862,0,0,1-3.2-11.3a2.152,2.152,0,0,1,.153.84Zm-1.084-.979a1.53,1.53,0,0,0-.587-.628,1.712,1.712,0,0,0-.864-.208,1.7,1.7,0,0,0-.86.208,1.561,1.561,0,0,0-.592.628Z" transform="translate(4969.209 6910.68)" fill="#2c2c2c"/>
  </g>
</svg>
